<svg width="338" height="214" viewBox="0 0 338 214" fill="none" xmlns="http://www.w3.org/2000/svg">
<path d="M246 69.0126C246 58.3003 240.773 48.3335 231.281 40.9488C222.222 33.9002 210.251 30.0183 197.573 30.0183C184.894 30.0189 172.922 33.9002 163.863 40.9488C161.381 42.8806 159.197 44.9921 157.316 47.2443C151.98 45.6563 146.284 44.8143 140.428 44.8143C127.75 44.8143 115.779 48.6962 106.719 55.7448C97.2273 63.1295 92 73.095 92 83.8073C92 94.4748 97.3074 104.534 106.679 111.838L102.279 130.061C101.834 131.901 102.456 133.848 103.855 135.005C104.638 135.652 105.579 135.982 106.526 135.982C107.27 135.982 108.018 135.779 108.693 135.365L130.531 121.99C133.775 122.528 137.097 122.801 140.427 122.801C153.106 122.801 165.078 118.92 174.137 111.872C176.617 109.942 178.8 107.833 180.677 105.581C186.015 107.167 191.715 108.006 197.572 108.006C200.9 108.006 204.221 107.733 207.468 107.195L229.307 120.57C229.982 120.983 230.73 121.187 231.474 121.187C232.42 121.187 233.363 120.858 234.146 120.209C235.545 119.053 236.166 117.105 235.721 115.265L231.321 97.0423C240.693 89.7377 246 79.6788 246 69.0126ZM223.975 90.9694C222.343 92.0624 221.56 94.1739 222.044 96.1789L224.612 106.812L210.451 98.1397C209.787 97.7323 209.039 97.5216 208.283 97.5216C208.024 97.5216 207.763 97.5462 207.505 97.5967C204.268 98.2249 200.926 98.544 197.573 98.544C175.708 98.544 157.921 85.2957 157.921 69.0119C157.921 52.7275 175.708 39.4787 197.573 39.478C219.437 39.478 237.224 52.7269 237.224 69.0119C237.224 77.3263 232.394 85.3298 223.975 90.9694Z" fill="#E46700"/>
<path d="M175.914 64.6886C173.1 64.6886 170.811 67.1558 170.811 70.1882C170.811 73.2205 173.1 75.6878 175.914 75.6878C178.728 75.6878 181.017 73.2205 181.017 70.1882C181.017 67.1558 178.728 64.6886 175.914 64.6886Z" fill="#E46700"/>
<path d="M190.353 64.6886C187.539 64.6886 185.251 67.1558 185.251 70.1882C185.251 73.2205 187.539 75.6878 190.353 75.6878C193.167 75.6878 195.456 73.2205 195.456 70.1882C195.455 67.1558 193.166 64.6886 190.353 64.6886Z" fill="#E46700"/>
<path d="M204.792 64.6886C201.978 64.6886 199.688 67.1558 199.688 70.1882C199.688 73.2212 201.977 75.6884 204.792 75.6884C207.605 75.6884 209.893 73.2212 209.893 70.1882C209.893 67.1558 207.605 64.6886 204.792 64.6886Z" fill="#E46700"/>
<path d="M219.231 64.6886C216.417 64.6886 214.128 67.1558 214.128 70.1882C214.128 73.2212 216.417 75.6884 219.231 75.6884C222.044 75.6884 224.332 73.2212 224.332 70.1882C224.332 67.1558 222.044 64.6886 219.231 64.6886Z" fill="#E46700"/>
<path d="M19.2 211H10.56V184.12H0.48V177.4H29.28V184.12H19.2V211ZM32.6456 177.4H52.8056C56.1656 177.4 58.5976 178.168 60.1016 179.704C61.6376 181.208 62.4056 183.64 62.4056 187V191.32C62.4056 193.976 61.9576 196.04 61.0616 197.512C60.1976 198.984 58.8056 199.96 56.8856 200.44L62.8856 211H53.5256L48.0056 200.92H41.2856V211H32.6456V177.4ZM53.7656 187C53.7656 185.08 52.8056 184.12 50.8856 184.12H41.2856V194.2H50.8856C52.8056 194.2 53.7656 193.24 53.7656 191.32V187ZM73.1925 211H63.8325L76.5525 177.4H86.1525L98.8725 211H89.5125L87.3525 205H75.3525L73.1925 211ZM77.5125 198.76H85.1925L81.3525 187.48L77.5125 198.76ZM130.551 211H121.431L109.911 190.84V211H101.271V177.4H110.391L121.911 197.56V177.4H130.551V211ZM135.325 204.04C144.093 204.52 150.029 204.76 153.133 204.76C153.869 204.76 154.445 204.552 154.861 204.136C155.309 203.688 155.533 203.096 155.533 202.36V198.04H144.493C141.133 198.04 138.685 197.288 137.149 195.784C135.645 194.248 134.893 191.8 134.893 188.44V187C134.893 183.64 135.645 181.208 137.149 179.704C138.685 178.168 141.133 177.4 144.493 177.4H161.341V184.12H146.413C144.493 184.12 143.533 185.08 143.533 187V187.96C143.533 189.88 144.493 190.84 146.413 190.84H155.053C158.189 190.84 160.493 191.576 161.965 193.048C163.437 194.52 164.173 196.824 164.173 199.96V202.36C164.173 205.496 163.437 207.8 161.965 209.272C160.493 210.744 158.189 211.48 155.053 211.48C153.421 211.48 151.693 211.448 149.869 211.384L145.453 211.192C142.189 211.032 138.813 210.808 135.325 210.52V204.04Z" fill="#E46700"/>
<path d="M184.329 211H167.049V204.28H171.369V184.12H167.049V177.4H184.329V184.12H180.009V204.28H184.329V211ZM217.446 192.28L210.726 204.28H204.006L197.286 192.28V211H188.646V177.4H197.766L207.366 195.16L216.966 177.4H226.086V211H217.446V192.28ZM231.864 177.4H252.024C255.384 177.4 257.816 178.168 259.32 179.704C260.856 181.208 261.624 183.64 261.624 187V191.8C261.624 195.16 260.856 197.608 259.32 199.144C257.816 200.648 255.384 201.4 252.024 201.4H240.504V211H231.864V177.4ZM252.984 187C252.984 185.08 252.024 184.12 250.104 184.12H240.504V194.68H250.104C252.024 194.68 252.984 193.72 252.984 191.8V187ZM274.583 204.28H292.103V211H265.943V177.4H274.583V204.28ZM322.114 211H295.474V177.4H322.114V184.12H304.114V190.6H318.274V197.32H304.114V204.28H322.114V211Z" fill="white"/>
</svg>
